<svg width="57" height="57" viewBox="0 0 57 57" fill="none" xmlns="http://www.w3.org/2000/svg">
<g id="vuesax/bold/book">
<path id="Vector" d="M48.6875 38V43.9375C48.6875 48.5212 44.9588 52.25 40.375 52.25H16.625C12.0413 52.25 8.3125 48.5212 8.3125 43.9375V42.3938C8.3125 38.665 11.3525 35.625 15.0812 35.625H46.3125C47.6188 35.625 48.6875 36.6938 48.6875 38Z" fill="white"/>
<path id="Vector_2" d="M36.8125 4.75H20.1875C10.6875 4.75 8.3125 7.125 8.3125 16.625V34.6275C10.1175 33.0362 12.4925 32.0625 15.0812 32.0625H46.3125C47.6188 32.0625 48.6875 30.9937 48.6875 29.6875V16.625C48.6875 7.125 46.3125 4.75 36.8125 4.75ZM30.875 25.5312H19C18.0262 25.5312 17.2188 24.7237 17.2188 23.75C17.2188 22.7763 18.0262 21.9688 19 21.9688H30.875C31.8487 21.9688 32.6562 22.7763 32.6562 23.75C32.6562 24.7237 31.8487 25.5312 30.875 25.5312ZM38 17.2188H19C18.0262 17.2188 17.2188 16.4113 17.2188 15.4375C17.2188 14.4637 18.0262 13.6562 19 13.6562H38C38.9737 13.6562 39.7812 14.4637 39.7812 15.4375C39.7812 16.4113 38.9737 17.2188 38 17.2188Z" fill="white"/>
</g>
</svg>
