<svg width="16" height="16" viewBox="0 0 16 16" fill="none" xmlns="http://www.w3.org/2000/svg">
<g id="vuesax/linear/book">
<g id="book">
<path id="Vector" d="M14.6667 11.16V3.1133C14.6667 2.3133 14.0133 1.71996 13.22 1.78663H13.18C11.78 1.90663 9.65333 2.61996 8.46667 3.36663L8.35333 3.43996C8.16 3.55996 7.84 3.55996 7.64667 3.43996L7.48 3.33996C6.29333 2.59996 4.17333 1.8933 2.77333 1.77996C1.98 1.7133 1.33333 2.3133 1.33333 3.10663V11.16C1.33333 11.8 1.85333 12.4 2.49333 12.48L2.68667 12.5066C4.13333 12.7 6.36667 13.4333 7.64667 14.1333L7.67333 14.1466C7.85333 14.2466 8.14 14.2466 8.31333 14.1466C9.59333 13.44 11.8333 12.7 13.2867 12.5066L13.5067 12.48C14.1467 12.4 14.6667 11.8 14.6667 11.16Z" stroke="#585757" stroke-width="1.5" stroke-linecap="round" stroke-linejoin="round"/>
<path id="Vector_2" d="M8 3.66003V13.66" stroke="#585757" stroke-width="1.5" stroke-linecap="round" stroke-linejoin="round"/>
<path id="Vector_3" d="M5.16667 5.66003H3.66667" stroke="#585757" stroke-width="1.5" stroke-linecap="round" stroke-linejoin="round"/>
<path id="Vector_4" d="M5.66667 7.66003H3.66667" stroke="#585757" stroke-width="1.5" stroke-linecap="round" stroke-linejoin="round"/>
</g>
</g>
</svg>
