<svg width="39" height="39" viewBox="0 0 39 39" fill="none" xmlns="http://www.w3.org/2000/svg">
<g id="vuesax/bold/document">
<g id="document">
<path id="Vector" d="M26.0992 3.74963H12.9007C7.16772 3.74963 3.74997 7.16738 3.74997 12.9004V26.0831C3.74997 31.8319 7.16772 35.2496 12.9007 35.2496H26.0835C31.8165 35.2496 35.2342 31.8319 35.2342 26.0989V12.9004C35.25 7.16738 31.8322 3.74963 26.0992 3.74963ZM25.4062 25.4059H13.5937C12.948 25.4059 12.4125 24.8704 12.4125 24.2246C12.4125 23.5789 12.948 23.0434 13.5937 23.0434H25.4062C26.052 23.0434 26.5875 23.5789 26.5875 24.2246C26.5875 24.8704 26.052 25.4059 25.4062 25.4059ZM25.4062 15.9559H13.5937C12.948 15.9559 12.4125 15.4204 12.4125 14.7746C12.4125 14.1289 12.948 13.5934 13.5937 13.5934H25.4062C26.052 13.5934 26.5875 14.1289 26.5875 14.7746C26.5875 15.4204 26.052 15.9559 25.4062 15.9559Z" fill="white"/>
</g>
</g>
</svg>
