<svg width="39" height="39" viewBox="0 0 39 39" fill="none" xmlns="http://www.w3.org/2000/svg">
<g id="vuesax/bold/teacher">
<path id="Vector" d="M27.1072 25.2326C28.1625 24.5396 29.5485 25.2956 29.5485 26.5556V28.5874C29.5485 30.5876 27.9892 32.7296 26.115 33.3596L21.0907 35.0291C20.2087 35.3284 18.7755 35.3284 17.9092 35.0291L12.885 33.3596C10.995 32.7296 9.45147 30.5876 9.45147 28.5874V26.5399C9.45147 25.2956 10.8375 24.5396 11.877 25.2169L15.1215 27.3274C16.3657 28.1621 17.9407 28.5716 19.5157 28.5716C21.0907 28.5716 22.6657 28.1621 23.91 27.3274L27.1072 25.2326Z" fill="white"/>
<path id="Vector_2" d="M32.0685 10.7742L22.6342 4.58441C20.9332 3.46617 18.1297 3.46617 16.4287 4.58441L6.94722 10.7742C3.90747 12.7429 3.90747 17.2002 6.94722 19.1847L9.46722 20.8227L16.4287 25.3587C18.1297 26.4769 20.9332 26.4769 22.6342 25.3587L29.5485 20.8227L31.7062 19.4052V24.2247C31.7062 24.8704 32.2417 25.4059 32.8875 25.4059C33.5332 25.4059 34.0687 24.8704 34.0687 24.2247V16.4757C34.6987 14.4439 34.053 12.0814 32.0685 10.7742Z" fill="white"/>
</g>
</svg>
