<svg width="25" height="24" viewBox="0 0 25 24" fill="none" xmlns="http://www.w3.org/2000/svg">
<g id="vuesax/linear/teacher">
<g id="teacher">
<path id="Vector" d="M10.55 2.53001L4.53002 6.46001C2.60002 7.72001 2.60002 10.54 4.53002 11.8L10.55 15.73C11.63 16.44 13.41 16.44 14.49 15.73L20.48 11.8C22.4 10.54 22.4 7.73001 20.48 6.47001L14.49 2.54001C13.41 1.82001 11.63 1.82001 10.55 2.53001Z" stroke="white" stroke-width="1.5" stroke-linecap="round" stroke-linejoin="round"/>
<path id="Vector_2" d="M6.13 13.08L6.12 17.77C6.12 19.04 7.1 20.4 8.3 20.8L11.49 21.86C12.04 22.04 12.95 22.04 13.51 21.86L16.7 20.8C17.9 20.4 18.88 19.04 18.88 17.77V13.13" stroke="white" stroke-width="1.5" stroke-linecap="round" stroke-linejoin="round"/>
<path id="Vector_3" d="M21.9 15V9" stroke="white" stroke-width="1.5" stroke-linecap="round" stroke-linejoin="round"/>
</g>
</g>
</svg>
